<svg width="48" height="48" viewBox="0 0 48 48" fill="none" xmlns="http://www.w3.org/2000/svg">
<path fill-rule="evenodd" clip-rule="evenodd" d="M35 37C36.3261 37 37.5979 36.4732 38.5355 35.5355C39.4732 34.5979 40 33.3261 40 32C40 30.6739 39.4732 29.4021 38.5355 28.4645C37.5979 27.5268 36.3261 27 35 27C33.6739 27 32.4021 27.5268 31.4645 28.4645C30.5268 29.4021 30 30.6739 30 32C30 33.3261 30.5268 34.5979 31.4645 35.5355C32.4021 36.4732 33.6739 37 35 37ZM35 39C36.8565 39 38.637 38.2625 39.9497 36.9497C41.2625 35.637 42 33.8565 42 32C42 30.1435 41.2625 28.363 39.9497 27.0503C38.637 25.7375 36.8565 25 35 25C33.1435 25 31.363 25.7375 30.0503 27.0503C28.7375 28.363 28 30.1435 28 32C28 33.8565 28.7375 35.637 30.0503 36.9497C31.363 38.2625 33.1435 39 35 39Z" fill="#111111" fill-opacity="0.31"/>
<path fill-rule="evenodd" clip-rule="evenodd" d="M35 28.5C35.2652 28.5 35.5196 28.6054 35.7071 28.7929C35.8946 28.9804 36 29.2348 36 29.5V31.586L36.707 32.293C36.8892 32.4816 36.99 32.7342 36.9877 32.9964C36.9854 33.2586 36.8802 33.5094 36.6948 33.6948C36.5094 33.8802 36.2586 33.9854 35.9964 33.9877C35.7342 33.99 35.4816 33.8892 35.293 33.707L34 32.414V29.5C34 29.2348 34.1054 28.9804 34.2929 28.7929C34.4804 28.6054 34.7348 28.5 35 28.5Z" fill="#111111" fill-opacity="0.31"/>
<path fill-rule="evenodd" clip-rule="evenodd" d="M14 20H12V22H14V20ZM12 18C11.4696 18 10.9609 18.2107 10.5858 18.5858C10.2107 18.9609 10 19.4696 10 20V22C10 22.5304 10.2107 23.0391 10.5858 23.4142C10.9609 23.7893 11.4696 24 12 24H14C14.5304 24 15.0391 23.7893 15.4142 23.4142C15.7893 23.0391 16 22.5304 16 22V20C16 19.4696 15.7893 18.9609 15.4142 18.5858C15.0391 18.2107 14.5304 18 14 18H12Z" fill="#111111" fill-opacity="0.31"/>
<path fill-rule="evenodd" clip-rule="evenodd" d="M22 20H20V22H22V20ZM20 18C19.4696 18 18.9609 18.2107 18.5858 18.5858C18.2107 18.9609 18 19.4696 18 20V22C18 22.5304 18.2107 23.0391 18.5858 23.4142C18.9609 23.7893 19.4696 24 20 24H22C22.5304 24 23.0391 23.7893 23.4142 23.4142C23.7893 23.0391 24 22.5304 24 22V20C24 19.4696 23.7893 18.9609 23.4142 18.5858C23.0391 18.2107 22.5304 18 22 18H20Z" fill="#111111" fill-opacity="0.31"/>
<path fill-rule="evenodd" clip-rule="evenodd" d="M30 20H28V22H30V20ZM28 18C27.4696 18 26.9609 18.2107 26.5858 18.5858C26.2107 18.9609 26 19.4696 26 20V22C26 22.5304 26.2107 23.0391 26.5858 23.4142C26.9609 23.7893 27.4696 24 28 24H30C30.5304 24 31.0391 23.7893 31.4142 23.4142C31.7893 23.0391 32 22.5304 32 22V20C32 19.4696 31.7893 18.9609 31.4142 18.5858C31.0391 18.2107 30.5304 18 30 18H28Z" fill="#111111" fill-opacity="0.31"/>
<path fill-rule="evenodd" clip-rule="evenodd" d="M14 28H12V30H14V28ZM12 26C11.4696 26 10.9609 26.2107 10.5858 26.5858C10.2107 26.9609 10 27.4696 10 28V30C10 30.5304 10.2107 31.0391 10.5858 31.4142C10.9609 31.7893 11.4696 32 12 32H14C14.5304 32 15.0391 31.7893 15.4142 31.4142C15.7893 31.0391 16 30.5304 16 30V28C16 27.4696 15.7893 26.9609 15.4142 26.5858C15.0391 26.2107 14.5304 26 14 26H12Z" fill="#111111" fill-opacity="0.31"/>
<path fill-rule="evenodd" clip-rule="evenodd" d="M22 28H20V30H22V28ZM20 26C19.4696 26 18.9609 26.2107 18.5858 26.5858C18.2107 26.9609 18 27.4696 18 28V30C18 30.5304 18.2107 31.0391 18.5858 31.4142C18.9609 31.7893 19.4696 32 20 32H22C22.5304 32 23.0391 31.7893 23.4142 31.4142C23.7893 31.0391 24 30.5304 24 30V28C24 27.4696 23.7893 26.9609 23.4142 26.5858C23.0391 26.2107 22.5304 26 22 26H20Z" fill="#111111" fill-opacity="0.31"/>
<path fill-rule="evenodd" clip-rule="evenodd" d="M8 9C8 8.73478 8.10536 8.48043 8.29289 8.29289C8.48043 8.10536 8.73478 8 9 8H14V6H9C8.20435 6 7.44129 6.31607 6.87868 6.87868C6.31607 7.44129 6 8.20435 6 9V33C6 33.7956 6.31607 34.5587 6.87868 35.1213C7.44129 35.6839 8.20435 36 9 36H29.255C28.8285 35.3892 28.5028 34.7139 28.29 34H9C8.73478 34 8.48043 33.8946 8.29289 33.7071C8.10536 33.5196 8 33.2652 8 33V9ZM34 25.07C34.6633 24.9751 35.3367 24.9751 36 25.07V9C36 8.20435 35.6839 7.44129 35.1213 6.87868C34.5587 6.31607 33.7956 6 33 6H30V8H33C33.2652 8 33.5196 8.10536 33.7071 8.29289C33.8946 8.48043 34 8.73478 34 9V25.07ZM16 8H26.563V6H16V8Z" fill="#111111" fill-opacity="0.31"/>
<path fill-rule="evenodd" clip-rule="evenodd" d="M28 6H16V9C16 9.26522 15.8946 9.51957 15.7071 9.70711C15.5196 9.89464 15.2652 10 15 10C14.7348 10 14.4804 9.89464 14.2929 9.70711C14.1054 9.51957 14 9.26522 14 9V6H9C8.46957 6 7.96086 6.21071 7.58579 6.58579C7.21071 6.96086 7 7.46957 7 8V13C7 13.5304 7.21071 14.0391 7.58579 14.4142C7.96086 14.7893 8.46957 15 9 15H33C33.5304 15 34.0391 14.7893 34.4142 14.4142C34.7893 14.0391 35 13.5304 35 13V8C35 7.46957 34.7893 6.96086 34.4142 6.58579C34.0391 6.21071 33.5304 6 33 6H30V9C30 9.26522 29.8946 9.51957 29.7071 9.70711C29.5196 9.89464 29.2652 10 29 10C28.7348 10 28.4804 9.89464 28.2929 9.70711C28.1054 9.51957 28 9.26522 28 9V6Z" fill="#111111" fill-opacity="0.31"/>
<path fill-rule="evenodd" clip-rule="evenodd" d="M36 15H8V13H36V15Z" fill="#111111" fill-opacity="0.31"/>
<path d="M12 4C12 3.73478 12.1054 3.48043 12.2929 3.29289C12.4804 3.10536 12.7348 3 13 3C13.2652 3 13.5196 3.10536 13.7071 3.29289C13.8946 3.48043 14 3.73478 14 4V8C14 8.26522 13.8946 8.51957 13.7071 8.70711C13.5196 8.89464 13.2652 9 13 9C12.7348 9 12.4804 8.89464 12.2929 8.70711C12.1054 8.51957 12 8.26522 12 8V4Z" fill="#111111" fill-opacity="0.31"/>
<path d="M26 4C26 3.73478 26.1054 3.48043 26.2929 3.29289C26.4804 3.10536 26.7348 3 27 3C27.2652 3 27.5196 3.10536 27.7071 3.29289C27.8946 3.48043 28 3.73478 28 4V8C28 8.26522 27.8946 8.51957 27.7071 8.70711C27.5196 8.89464 27.2652 9 27 9C26.7348 9 26.4804 8.89464 26.2929 8.70711C26.1054 8.51957 26 8.26522 26 8V4Z" fill="#111111" fill-opacity="0.31"/>
</svg>
